<?xml version="1.0" standalone="no"?>
<!DOCTYPE svg PUBLIC "-//W3C//DTD SVG 20010904//EN"
 "http://www.w3.org/TR/2001/REC-SVG-20010904/DTD/svg10.dtd">
<svg version="1.0" xmlns="http://www.w3.org/2000/svg"
 width="200.000000pt" height="200.000000pt" viewBox="0 0 200.000000 200.000000"
 preserveAspectRatio="xMidYMid meet">
<metadata>
Created by potrace 1.11, written by Peter Selinger 2001-2013
</metadata>
<g transform="translate(0.000000,200.000000) scale(0.100000,-0.100000)"
fill="#000000" stroke="none">
<path d="M730 1744 c-146 -85 -291 -168 -322 -186 l-57 -33 -1 -375 0 -375
325 -187 325 -188 192 111 c106 61 253 145 326 187 l132 76 0 376 0 375 -38
21 c-20 11 -109 63 -197 114 -277 161 -328 190 -335 190 -4 0 -13 6 -19 14 -7
8 -24 19 -39 24 -24 8 -56 -8 -292 -144z"/>
<path d="M606 351 c-1 -3 -2 -60 -2 -126 l1 -120 40 0 40 0 0 43 c0 41 1 42
33 42 29 0 32 -3 28 -24 -2 -14 -2 -34 1 -46 5 -17 12 -21 42 -18 l36 3 0 125
0 125 -37 2 c-40 4 -41 2 -41 -59 1 -21 -4 -27 -28 -30 -21 -3 -29 0 -30 11 0
9 -2 30 -2 46 -2 28 -5 30 -40 31 -21 0 -39 -2 -41 -5z"/>
<path d="M884 348 c-6 -7 -9 -65 -9 -128 l1 -115 39 0 40 0 0 64 c-1 61 0 62
16 42 22 -27 53 -27 67 2 9 18 11 10 11 -45 l1 -68 40 0 40 0 0 128 0 128 -32
2 c-40 2 -51 -4 -72 -45 -9 -18 -18 -33 -21 -33 -2 0 -13 17 -25 38 -17 31
-28 38 -54 40 -18 1 -37 -3 -42 -10z"/>
<path d="M1186 353 c-3 -4 -6 -62 -6 -130 l0 -123 79 0 c131 0 145 13 144 128
-2 81 -8 108 -30 117 -23 10 -178 16 -187 8z m134 -92 c3 -14 4 -40 2 -58 -4
-29 -8 -33 -32 -33 -28 0 -28 1 -28 61 1 58 2 60 27 57 17 -2 27 -11 31 -27z"/>
</g>
</svg>
